# xmcd CD database file
#
# Track frame offsets:
#	150
#	11690
#	26965
#	42410
#	51700
#	63382
#	76397
#	87430
#	108037
#	119562
#	129537
#	143232
#	158730
#	171207
#	185145
#
# Disc length: 2593 seconds
#
# Revision: 1
# Processed by: cddbd v1.5.2PL0 Copyright (c) Steve Scherf et al.
# Submitted via: CDex 1.51
#
DISCID=d90a1f0f
DTITLE=Otis Spann - Otis Spann's Chicago Blues (with James Cotton, Johnny Young, Big Walter Horton, Johnny Shines)
DYEAR=1900
DGENRE=Blues
TTITLE0=Get Your Hands Out Of My Pocket
TTITLE1=Nobody Knows My Troubles
TTITLE2=Sarah Street
TTITLE3=Worried Life Blues
TTITLE4=You Can't Hide
TTITLE5=Jack-Knife (Instrumental)
TTITLE6=What's On Your Worried Mind?
TTITLE7=Vicksburg Blues
TTITLE8=Who's Out There?
TTITLE9=Spann's Boogie Woogie (Instrumental)
TTITLE10=See See Rider
TTITLE11=Lovin' You
TTITLE12=One-Room Country Shack
TTITLE13=Mr. Jelly Roll Baker
TTITLE14=G.B. Blues (Instrumental)
EXTD=
EXTT0=
EXTT1=
EXTT2=
EXTT3=
EXTT4=
EXTT5=
EXTT6=
EXTT7=
EXTT8=
EXTT9=
EXTT10=
EXTT11=
EXTT12=
EXTT13=
EXTT14=
PLAYORDER=
